M48
INCH
T01C0.0394
T02C0.0472
%
T01
X+004062Y+001247
X+004062Y+000263
X+004062Y-001753
X+004062Y-002737
X+001312Y-003753
X+001312Y-004737
X-001188Y-004737
X-001188Y-003753
X-003938Y-002737
X-003938Y-001753
X-003938Y+000263
X-003938Y+001247
X-004688Y+002872
X-003688Y+003872
X-002688Y+002872
X-001688Y+003872
X-000688Y+002872
X+000312Y+003872
X+001312Y+002872
X+002312Y+003872
X+001312Y+001247
X+001312Y+000263
X+001312Y-000721
X+001312Y-001705
X+005312Y+002872
X+006312Y+003872
X-005688Y+003872
X-006688Y+002872
T02
X+003312Y+002872
X+004312Y+003872
T00
M30
