G04 DipTrace 2.4.0.2*
%INBottom.gbr*%
%MOIN*%
%ADD13C,0.0551*%
%ADD14C,0.0236*%
%ADD15C,0.0394*%
%ADD16C,0.0315*%
%ADD18O,0.1181X0.0669*%
%ADD19O,0.1181X0.0709*%
%ADD20C,0.1063*%
%ADD21C,0.0984*%
%FSLAX44Y44*%
G04*
G70*
G90*
G75*
G01*
%LNBottom*%
%LPD*%
X3312Y2872D2*
D13*
Y2185D1*
X4062Y1435D1*
Y1247D1*
X4312Y3872D2*
Y2500D1*
X5188Y1625D1*
Y688D1*
X4747Y247D1*
X4078D1*
X4062Y263D1*
Y-1753D2*
D14*
X4687D1*
X5812Y-628D1*
Y2372D1*
X5312Y2872D1*
X6312Y3872D2*
Y-1253D1*
X4812Y-2753D1*
X4078D1*
X4062Y-2737D1*
X2312Y3872D2*
D15*
Y1560D1*
X2000Y1247D1*
X1312D1*
Y2872D2*
Y2497D1*
X375Y1560D1*
Y875D1*
X1003Y247D1*
X1297D1*
X1312Y263D1*
Y-721D2*
X656D1*
X-187Y122D1*
Y1872D1*
X312Y2372D1*
Y3872D1*
X-688Y2872D2*
X-750D1*
Y-315D1*
X640Y-1705D1*
X1312D1*
X-1688Y3872D2*
D14*
Y2563D1*
X-1250Y2125D1*
Y-563D1*
X1312Y-3125D1*
Y-3753D1*
X-2688Y2872D2*
X-1625Y1810D1*
Y-1063D1*
X312Y-3000D1*
Y-4503D1*
X562Y-4753D1*
X1297D1*
X1312Y-4737D1*
X-3688Y3872D2*
D16*
Y2750D1*
X-2063Y1125D1*
Y-2250D1*
X-1188Y-3125D1*
Y-3753D1*
X-4688Y2872D2*
X-4497D1*
X-2563Y938D1*
Y-4128D1*
X-1953Y-4737D1*
X-1188D1*
X-5688Y3872D2*
Y2188D1*
X-4747Y1247D1*
X-3938D1*
X-3685D1*
X-3063Y625D1*
Y-878D1*
X-3938Y-1753D1*
X-6688Y2872D2*
Y1688D1*
X-5263Y263D1*
X-3938D1*
X-4938D1*
Y-2253D1*
X-4453Y-2737D1*
X-3938D1*
D18*
X4062Y1247D3*
D19*
Y263D3*
D18*
Y-1753D3*
D19*
Y-2737D3*
D18*
X-1188Y-3753D3*
D19*
Y-4737D3*
D18*
X-3938Y1247D3*
D19*
Y263D3*
D18*
X1312Y-3753D3*
D19*
Y-4737D3*
D18*
X-3938Y-1753D3*
D19*
Y-2737D3*
D20*
X3312Y2872D3*
X4312Y3872D3*
D18*
X1312Y1247D3*
D19*
Y263D3*
Y-1705D3*
Y-721D3*
D21*
X5312Y2872D3*
X6312Y3872D3*
X2312D3*
X1312Y2872D3*
X312Y3872D3*
X-688Y2872D3*
X-1688Y3872D3*
X-2688Y2872D3*
X-3688Y3872D3*
X-4688Y2872D3*
X-5688Y3872D3*
X-6688Y2872D3*
M02*
